# xmcd CD database file
#
# Track frame offsets:
#	150
#	19343
#	35452
#	55192
#	69969
#	88167
#	104616
#	117816
#	132863
#	150878
#
# Disc length: 2219 seconds
#
# Revision: 0
# Processed by: cddbd v1.5.1PL0 Copyright (c) Steve Scherf et al.
# Submitted via: CDex 1.60beta1
#
DISCID=7a08a90a
DTITLE=Molly Slone - Molly Slone
DYEAR=1900
DGENRE=Country
TTITLE0=State I'm In
TTITLE1=Crying Steel
TTITLE2=For Now
TTITLE3=It Always Rains
TTITLE4=Gamble With My Heart
TTITLE5=Slow Dance
TTITLE6=It Ain't Easy
TTITLE7=Tear My Stillhouse Down
TTITLE8=Save Me A Seat
TTITLE9=I Feel The Blues Movin In
EXTD=
EXTT0=
EXTT1=
EXTT2=
EXTT3=
EXTT4=
EXTT5=
EXTT6=
EXTT7=
EXTT8=
EXTT9=
PLAYORDER=
